<svg version="1.1" id="Layer_1" xmlns="http://www.w3.org/2000/svg" xmlns:xlink="http://www.w3.org/1999/xlink" x="0px" y="0px"
	 width="100%" viewBox="0 0 653 295" enable-background="new 0 0 653 295" xml:space="preserve">

<path fill="#a11f1a" opacity="1.000000" stroke="#a11f1a" 
	d="
	M1.000000,190.468658 
	C1.975090,190.146622 2.950350,190.422531 3.925245,190.421249 
	C43.915752,190.368774 83.948425,191.415329 123.885414,189.916107 
	C168.053436,188.258041 203.115112,168.088821 227.077194,130.712753 
	C238.884003,112.296494 251.453491,95.068031 269.350983,82.044617 
	C317.547760,46.973438 386.105194,49.094719 431.935608,87.249741 
	C445.022644,98.145012 455.598236,111.045219 464.197052,125.712334 
	C483.545593,158.715469 512.148376,179.196793 549.397888,187.380188 
	C557.796265,189.225235 566.538757,190.184067 575.139709,190.300140 
	C601.129517,190.650894 627.127686,190.386703 653.561279,190.181122 
	C654.000000,225.315445 654.000000,260.630890 654.000000,295.944305 
	C436.333313,295.942261 218.666656,295.942261 1.000000,295.942261 
	C1.000000,260.902100 1.000000,225.919708 1.000000,190.468658 
z"/>

</svg>